<svg xmlns="http://www.w3.org/2000/svg" width="375" viewBox="0 0 375 375" height="375" version="1.0"><defs><clipPath id="a"><path d="M 18.90625 18.90625 L 356.40625 18.90625 L 356.40625 188 L 18.90625 188 Z M 18.90625 18.90625"/></clipPath><clipPath id="b"><path d="M 18.90625 187 L 356.40625 187 L 356.40625 356.40625 L 18.90625 356.40625 Z M 18.90625 187"/></clipPath></defs><g clip-path="url(#a)"><path fill="#00AEEF" d="M 105.308594 179.472656 C 105.34375 172.847656 106.007812 166.285156 107.296875 159.785156 C 107.921875 156.527344 108.777344 153.332031 109.871094 150.203125 C 110.992188 146.925781 112.382812 143.773438 114.046875 140.738281 C 117.1875 134.941406 121.40625 130.082031 126.703125 126.160156 C 131.28125 122.792969 136.820312 120.839844 143.21875 120.320312 C 144.378906 120.21875 145.566406 120.171875 146.785156 120.171875 L 196.066406 120.03125 L 182.082031 150.203125 L 147.453125 150.203125 C 146.417969 150.15625 145.417969 150.304688 144.445312 150.652344 C 143.46875 151 142.597656 151.515625 141.828125 152.207031 C 141.828125 152.207031 141.828125 152.207031 141.769531 152.253906 C 139.867188 154.085938 138.4375 156.230469 137.480469 158.695312 C 136.238281 161.808594 135.398438 165.03125 134.964844 168.355469 C 134.585938 171.105469 134.347656 173.890625 134.261719 176.667969 C 134.261719 177.609375 134.210938 178.550781 134.210938 179.480469 L 134.210938 187.515625 L 193.746094 187.515625 L 193.746094 176.679688 L 231.460938 176.679688 C 233.515625 176.679688 237.789062 176.679688 237.789062 167.316406 L 237.789062 159.308594 C 237.789062 155.734375 237.121094 153.578125 236.195312 152.277344 C 234.789062 150.273438 232.679688 150.273438 231.46875 150.273438 L 193.765625 150.273438 L 207.828125 120.304688 L 233.710938 120.304688 C 234.984375 120.304688 236.277344 120.355469 237.585938 120.460938 C 250.46875 121.464844 264.128906 127.976562 266.449219 150.273438 C 266.683594 152.582031 266.796875 154.902344 266.792969 157.226562 L 266.792969 169.375 C 266.792969 176.40625 265.632812 182.488281 263.347656 187.496094 L 356.40625 187.496094 C 356.328125 94.378906 280.808594 18.90625 187.65625 18.90625 C 94.507812 18.90625 18.984375 94.378906 18.90625 187.515625 L 105.308594 187.515625 Z M 105.308594 179.472656"/></g><g clip-path="url(#b)"><path fill="#23378D" d="M 263.347656 187.515625 C 262.398438 189.613281 261.210938 191.566406 259.785156 193.375 C 255.796875 198.371094 249.90625 201.628906 242.261719 203.105469 L 270.007812 255.015625 L 235.742188 255.015625 L 211.394531 203.921875 L 193.738281 203.921875 L 193.738281 187.515625 L 134.21875 187.515625 L 134.21875 195.203125 C 134.222656 198.96875 134.480469 202.71875 134.992188 206.453125 C 135.429688 209.835938 136.269531 213.117188 137.515625 216.296875 C 138.5 218.832031 139.945312 221.070312 141.855469 223.011719 C 142.605469 223.738281 143.46875 224.292969 144.445312 224.667969 C 145.421875 225.042969 146.433594 225.210938 147.480469 225.167969 L 182.136719 225.167969 L 196.199219 255.199219 L 146.839844 255.199219 C 144.96875 255.203125 143.105469 255.078125 141.25 254.820312 C 138.691406 254.492188 136.210938 253.851562 133.816406 252.902344 C 131.417969 251.949219 129.175781 250.710938 127.089844 249.195312 C 121.738281 245.222656 117.480469 240.300781 114.320312 234.429688 C 111.035156 228.359375 108.730469 221.933594 107.417969 215.15625 C 106.667969 211.453125 106.117188 207.71875 105.765625 203.957031 C 105.707031 203.359375 105.660156 202.773438 105.617188 202.183594 C 105.433594 199.820312 105.34375 197.488281 105.34375 195.203125 L 105.34375 187.515625 L 18.90625 187.515625 L 18.90625 187.65625 C 18.90625 280.855469 94.457031 356.40625 187.65625 356.40625 C 280.855469 356.40625 356.40625 280.855469 356.40625 187.65625 L 356.40625 187.515625 Z M 263.347656 187.515625"/></g><path fill="#23378D" d="M 134.261719 176.652344 C 134.367188 173.875 134.605469 171.089844 134.964844 168.34375 C 135.398438 165.015625 136.238281 161.796875 137.480469 158.679688 C 138.4375 156.21875 139.867188 154.070312 141.769531 152.242188 C 141.769531 152.242188 141.8125 152.242188 141.828125 152.191406 C 142.597656 151.503906 143.46875 150.984375 144.445312 150.636719 C 145.417969 150.292969 146.417969 150.140625 147.453125 150.1875 L 182.109375 150.1875 L 196.09375 120.015625 L 146.8125 120.15625 C 145.597656 120.15625 144.410156 120.207031 143.246094 120.304688 C 136.847656 120.824219 131.292969 122.78125 126.730469 126.148438 C 121.433594 130.070312 117.214844 134.929688 114.074219 140.722656 C 112.414062 143.757812 111.019531 146.914062 109.898438 150.1875 C 108.804688 153.320312 107.949219 156.511719 107.324219 159.769531 C 106.035156 166.269531 105.375 172.832031 105.335938 179.457031 L 105.335938 187.515625 L 134.21875 187.515625 L 134.21875 179.472656 C 134.21875 178.515625 134.21875 177.59375 134.261719 176.652344 Z M 134.261719 176.652344"/><path fill="#00AEEF" d="M 105.308594 195.203125 C 105.308594 197.488281 105.398438 199.820312 105.582031 202.183594 C 105.625 202.773438 105.671875 203.359375 105.730469 203.957031 C 106.082031 207.71875 106.632812 211.453125 107.382812 215.15625 C 108.695312 221.933594 111 228.359375 114.285156 234.429688 C 117.445312 240.300781 121.703125 245.222656 127.054688 249.195312 C 129.140625 250.710938 131.382812 251.949219 133.78125 252.902344 C 136.175781 253.851562 138.65625 254.492188 141.214844 254.820312 C 143.070312 255.078125 144.933594 255.203125 146.804688 255.199219 L 196.164062 255.199219 L 182.101562 225.167969 L 147.453125 225.167969 C 146.40625 225.210938 145.394531 225.042969 144.417969 224.667969 C 143.441406 224.292969 142.578125 223.738281 141.828125 223.011719 C 139.917969 221.070312 138.472656 218.832031 137.488281 216.296875 C 136.242188 213.117188 135.398438 209.835938 134.964844 206.453125 C 134.453125 202.71875 134.195312 198.96875 134.191406 195.203125 L 134.191406 187.515625 L 105.308594 187.515625 Z M 105.308594 195.203125"/><path fill="#00AEEF" d="M 193.738281 202.148438 L 193.738281 203.921875 L 211.394531 203.921875 L 235.742188 255.015625 L 270.007812 255.015625 L 242.261719 203.125 C 249.90625 201.648438 255.796875 198.394531 259.785156 193.394531 C 261.210938 191.585938 262.398438 189.636719 263.347656 187.539062 L 193.738281 187.539062 Z M 193.738281 202.148438"/><path fill="#23378D" d="M 266.792969 157.21875 C 266.796875 154.894531 266.683594 152.578125 266.449219 150.265625 C 264.128906 127.96875 250.46875 121.4375 237.585938 120.453125 C 236.277344 120.347656 234.984375 120.296875 233.710938 120.296875 L 207.84375 120.296875 L 193.78125 150.265625 L 231.484375 150.265625 C 232.71875 150.265625 234.773438 150.265625 236.207031 152.269531 C 237.136719 153.578125 237.804688 155.734375 237.804688 159.300781 L 237.804688 167.308594 C 237.804688 176.675781 233.535156 176.675781 231.476562 176.675781 L 193.753906 176.675781 L 193.753906 187.515625 L 263.363281 187.515625 C 265.648438 182.511719 266.808594 176.449219 266.808594 169.398438 Z M 266.792969 157.21875"/></svg>