<svg id="Layer_1" data-name="Layer 1" xmlns="http://www.w3.org/2000/svg" viewBox="0 0 207.84 207.83"><title>dgftr</title><path d="M615.91,395a1.44,1.44,0,0,1-.84.17,23.51,23.51,0,0,1,0-19.34,1.09,1.09,0,0,1,.82.19Z" transform="translate(-408.08 -280.08)" style="fill:#fcda71"/><path d="M520.16,487.09a8.15,8.15,0,0,1-.17.83H502a5.71,5.71,0,0,1-.18-.82A20.9,20.9,0,0,1,520.16,487.09Z" transform="translate(-408.08 -280.08)" style="fill:#fddc78"/><path d="M408.89,392.14h-.42l-.39-.15V376a.77.77,0,0,1,.78-.16A16.87,16.87,0,0,1,408.89,392.14Z" transform="translate(-408.08 -280.08)" style="fill:#fde18a"/><path d="M518,280.08a2.15,2.15,0,0,0,.07.91,17.23,17.23,0,0,1-15.12,0,2.33,2.33,0,0,0,.06-.91Z" transform="translate(-408.08 -280.08)" style="fill:#fde7a3"/><path d="M502.94,281h15.12c50.58,1.58,95.15,45.13,97,94.83q0,9.68,0,19.34c-3.64,30.13-17.32,54.56-41.87,72.52-15.75,11.52-33.25,18.7-53,19.41H501.82c-37.65-1.71-75.39-31.63-87.81-69.65-2.7-8.24-4.76-16.6-5.12-25.31l0-16.29C411.82,326.72,454.06,284.13,502.94,281Z" transform="translate(-408.08 -280.08)" style="fill:#fcc828"/><path d="M512.73,481.12c-14.09.09-24.77-5.2-34.27-13.29-7-5.93-13.65-12.17-20.68-18-2.86-2.37-2.83-5.5-3.38-8.51a59.67,59.67,0,0,1-.47-7c-.26-4.35-1.12-7.9-5.39-10.79-7.23-4.9-9.27-13.13-10.41-21.31a59,59,0,0,1,0-12c.22-3.22,1.2-6.51,4.78-7.47,3.75-1,3.37-3.42,2.81-6.13-1.54-7.35-2.21-14.66-.94-22.22,1.18-7,3.81-13,9-17.88,1.68-1.57,3-3.16,2.12-5.64-2-5.89-.21-11.27,2.86-16.14a143.75,143.75,0,0,1,11.56-16.23c3.7-4.36,9.67-5.66,14.4-8.74,3.36-2.19,6.73-4.89,11.46-3,1.18.47,3.18-.66,4.63-1.4,7.55-3.82,14.92-4,22.09.82a4,4,0,0,0,3.78.63c4.14-1.59,7.46.17,10.69,2.39a46.15,46.15,0,0,0,10.85,6,3.8,3.8,0,0,1,1.77.89c7.53,10.36,19,18.75,17,33.89a7.36,7.36,0,0,0,2.3,6.69c8.58,8.77,10.48,19.5,8.91,31.27-.5,3.72.23,7.58-1.34,11.21-.7,1.6,0,2.55,1.76,2.69,3.87.33,5.7,3.1,6,6.31,1,10,1.27,20-4.41,29-1.7,2.7-3.54,5.23-6.4,6.82-3.37,1.9-5.21,4.83-4.81,8.63,1,9.85-2.5,17.18-10.52,23.17-9.93,7.41-18,17.28-30,21.89C523,479.9,517.44,481.55,512.73,481.12Z" transform="translate(-408.08 -280.08)" style="fill:#a06601"/><path d="M511.34,479.79c-11.07-.86-21.21-4.55-29.86-11.88-7.22-6.12-14.25-12.47-21.47-18.59a9.92,9.92,0,0,1-3.81-6.77c-1.46-17-2.49-34.07-4.26-51.05-1.28-12.24,1.85-23.28,7.27-33.91,2.84-5.58,3.8-11.2,2.13-17.32-1-3.76.62-6.63,4.16-8s7.31-2.8,11.55-1.5a11.05,11.05,0,0,0,8.73-1,31.42,31.42,0,0,1,16.76-3.86c4.82.14,9.66,0,14.48,0,6.1,0,12.09-.39,17.86,3,4,2.32,8.75,2.47,13.57,1.43,4.48-1,8.44,1,11.72,4.15a4.61,4.61,0,0,1,1.53,4.95c-2.26,7.16-.63,13.86,2.76,20.15,6.77,12.57,7.49,25.79,5.77,39.67-1.62,13.15-2.39,26.42-3.19,39.66-.29,4.84-1.79,8.44-5.65,11.54-7.76,6.26-15.13,13-22.77,19.4C530.81,476.44,521.47,479,511.34,479.79Z" transform="translate(-408.08 -280.08)" style="fill:#fdeb25"/><path d="M580.79,399.21c.34-4.06,1-7.1-3.68-7.38-1.28-.08-3.67,1.13-3.7-.95,0-2.32.62-5,3.25-6.31a3.77,3.77,0,0,1,4.91,1.08,6.2,6.2,0,0,1,1.27,2.66c2.61,11.89.41,22.72-7.3,32.28-1.14,1.41-2.62,3.53-4.33,2.8-2.43-1.05-1-3.85-1.18-5.88-.19-2.38,1.45-2.61,3.32-2.44s3.19-.2,3.8-2.31c.71-2.47,1.55-4.86-.7-6.93-1.62-1.48-3.26-2.94-3.47-5.27-.27-3-.57-6.42,3.24-7.39C580.4,392.1,579.52,396.16,580.79,399.21Z" transform="translate(-408.08 -280.08)" style="fill:#fcea26"/><path d="M449.74,392.29c-3.15-1.21-5.62-1.81-7.25.91-1,1.61-2.28,3.32-.35,5.19,1.22-.51.88-1.45.91-2.16.07-1.7.69-2.89,2.49-3.17,2-.3,3.15.77,3.84,2.45,1.47,3.6.73,6.59-2.06,9.44-4.37,4.46-2.95,8.8,3.15,10,1.64.33,2.39,1.11,2.43,2.56.06,2,.9,4.09-.35,5.8-.71,1-1.77-.14-2.54-.71-8.45-6.15-13.81-25.84-9.64-35.49.74-1.7,1.61-3.29,4-3.1a4.32,4.32,0,0,1,4.1,3.05C448.91,388.46,449.16,389.91,449.74,392.29Z" transform="translate(-408.08 -280.08)" style="fill:#fcea25"/><path d="M571,408.5c.51-.93-1.09-3.39,1.52-3,2,.3,4.39,1.32,3.92,4.11-.26,1.57-.06,4.3-2.6,4S570.78,411,571,408.5Z" transform="translate(-408.08 -280.08)" style="fill:#fbe927"/><path d="M452,408.4c.15,2.46-.43,4.76-2.82,5.24-2,.4-2.77-1.77-2.62-3.36a5.14,5.14,0,0,1,4.31-4.81C452.84,405.22,451.61,407.48,452,408.4Z" transform="translate(-408.08 -280.08)" style="fill:#f7e328"/><path d="M533.71,448.05c-.51,1.75-1.68,2.13-3.4,1.41-2.81-1.18-5.17-.9-6.71,2.1-.7,1.37-2,1.56-3.41,1.61-5.47.19-10.93.44-16.4.63-1.49.05-3.24.36-4.27-.86-2.54-3-4.89-6-9.42-3.22-.7.43-1.56-.37-1.87-1.22-.39-1.07,0-1.75.94-2.46,12.72-9.21,30.86-9.24,43.22,0C533.07,446.52,533.78,446.94,533.71,448.05Z" transform="translate(-408.08 -280.08)" style="fill:#a16602"/><path d="M506,387.92c2.5,2.06,2.23,4.94,2.22,7.72,0,4.1-.07,8.21-.1,12.32,1.18,3.72-.37,7.51.24,11.25.28,1.73.07,4.25,2.51,4.09,2.22-.15,3-2.47,3-4.51.09-2.26-1-4.53,0-6.81a56.73,56.73,0,0,0-.67-11.92c-.76-4.13-.9-8.31,1.82-12,3.22-1,2.5,1.52,2.58,3.09.29,5.45-1.24,10.79-1.17,16.24,0,4,.32,7.88,3.2,11.13a4.8,4.8,0,0,1,.21,6.39c-5.75,3.39-11.69,3.21-17.74,1a6.65,6.65,0,0,1,.12-7.47c3.54-5.31,3.8-11.08,2.54-17.15-.74-3.58-.09-7.29-.6-10.92C504.05,389.24,504.37,388,506,387.92Z" transform="translate(-408.08 -280.08)" style="fill:#a46903"/><path d="M549.79,392.1c-1.17,3.16-4.4,3.47-6.79,4.95-1.2.82-2.31.93-3.28-.36-.17-1.46,1.33-1.4,2-2.14-.78.27-1.59,0-2.38.23-2.18.64-.67,1.47-.23,2.34.22.43-.13.91-.47,1.28-4.57,2-9.09,1.11-13.6-.22l-4.92-2.29c-3.4-2.37-1.87-4.17.75-5.7,1.12-.65,2.49-.51,3.75-.69,6.24-1.94,12.51-2.74,18.87-.56C545.59,389.92,548.21,390,549.79,392.1Z" transform="translate(-408.08 -280.08)" style="fill:#a26702"/><path d="M524.94,390.79c-2.53.83-8.18-1.31-4.86,5.1-1.09.71-.83,1.56-.37,2.57.55,1.24,2.36,2.91-1.1,3-1.53.05-1.58,1.88-1.59,3.23,0,4.86.31,9.56,3.67,13.55,2,2.32,2.31,4.78-.8,6.66-.08-1.48.39-3.32-.32-4.37-6.59-9.74-3.1-20.38-3-30.7,0-1.4-.34-1.78-1.54-1.78,1.14-3.39,3.34-5.58,7-6.1,2-1.06,3.92-2.27,6.33-1.59,2.21,2.65-.72,3.61-1.78,5.08C525.42,387.11,523.3,388.31,524.94,390.79Z" transform="translate(-408.08 -280.08)" style="fill:#fcb822"/><path d="M471.81,393c-4.31-5.35-3.34-10.31,1.09-15,1.48,0,3-1.51,4.42.2a9,9,0,0,1-.31,3.9c-.92,5.45-.27,6.19,5.49,6.3a39.53,39.53,0,0,0,10.59-.11c1.15.08,2.13.38,2.24,1.77-.59,2.68-2.71,3.06-4.93,3.23s-4.33.06-6.23,1.31a5.36,5.36,0,0,1-3.88.1C477.74,392.76,474.65,393.53,471.81,393Z" transform="translate(-408.08 -280.08)" style="fill:#fbb722"/><path d="M528.88,380.77c-2.34,0-4.4,1.65-6.82,1.21,4.07-5,9.68-7.77,15.18-10.6,3.47-1.77,8.28,1.62,11.67,7.59-1.46,1.21-2.87.27-4.3-.06a15.05,15.05,0,0,0-10.54.81C532.44,380.42,530.78,381.25,528.88,380.77Z" transform="translate(-408.08 -280.08)" style="fill:#a26803"/><path d="M477,377.89c-1.36-.18-2.66,2.12-4.07.11,7.91-8.9,8.31-9,18.29-2.85,2.77,1.71,5.25,3.9,7.86,5.87-2.66,2.41-4.6-1.34-7-.83C486.89,380.16,482.11,377.86,477,377.89Z" transform="translate(-408.08 -280.08)" style="fill:#a26802"/><path d="M513.92,412c.31,2.78,1,5.58.83,8.34-.12,2.46-1,5.36-4.19,5.13-2.7-.19-3.54-2.67-3.44-5.22.16-4.1-.66-8.29,1-12.27,2.64.3,2.85,2.17,2.9,4.29.05,2.36-.43,4.8.64,7.61C514.29,417.38,511.68,414,513.92,412Z" transform="translate(-408.08 -280.08)" style="fill:#f8c62b"/><path d="M484.12,393.89c.68-3.12,3.18-1.62,4.87-1.77,2.29-.19,4.66.22,6-2.32a2.09,2.09,0,0,1,3,.29c1.27,1.68,4.71,0,5,3.19.18,2.09-1.93,2.45-3,3.62L497,398.14c-1.44.63-2.88,1.21-4.12-.35.61-2.87,3.8-1.73,5.31-3.34a8.18,8.18,0,0,0-7.16,3.86c-3.17,1-6.37,2.37-9.09-.94C482.57,396.14,484.86,396,484.12,393.89Z" transform="translate(-408.08 -280.08)" style="fill:#a56b03"/><path d="M543.87,390.12c1.35-4,0-8.17,1.12-12.16l3.92,1" transform="translate(-408.08 -280.08)" style="fill:#fcb822"/><path d="M483,396.89c2.7,2.15,5.43,1.4,8.17.08a1.31,1.31,0,0,1,2,.19c1,1.26,2.56.61,3.82,1-6.76,5.75-14.2,4.41-19-1a2.27,2.27,0,0,1,1.37-1.8C480.87,395.15,482.64,394.4,483,396.89Z" transform="translate(-408.08 -280.08)" style="fill:#fab926"/><path d="M540.12,396.11c.67,1.2,1.89.71,2.88.94-4,5.21-11.43,5.68-18,1.13,4.6-1.13,9.52,1.23,14-1.26C538.88,396,539.23,395.67,540.12,396.11Z" transform="translate(-408.08 -280.08)" style="fill:#f5b425"/><path d="M479.09,396l-1.1,1.16c-2-1.49-4.69-1.87-6.18-4.1,2.91-1.34,5.79-2.44,8.18.9C480,394.76,476.58,394.06,479.09,396Z" transform="translate(-408.08 -280.08)" style="fill:#a86f05"/><path d="M545,378c.86,4.17,2.9,8.44-1.12,12.16a31.3,31.3,0,0,0-18.93.67c-2.51-.83-2.79-2.13-1.09-4.16s4.11-3.26,5-5.86C534,378.29,539,375.18,545,378Z" transform="translate(-408.08 -280.08)" style="fill:#fdeb25"/><path d="M530.15,396.52c-3.64,1.11-6.27.3-9.3-2C524.68,392.72,527.58,392,530.15,396.52Z" transform="translate(-408.08 -280.08)" style="fill:#f6e228"/><path d="M540.12,396.11l-1.12.81c-1.24-.09-3.17.76-3.53-.64-.47-1.85,1.63-2.09,3-2.64,2-.85,3.78.31,6.45.77Z" transform="translate(-408.08 -280.08)" style="fill:#f3dd27"/><path d="M477,377.9c5.54-2.71,10.2.41,15,2.29,1.82,1.92,3.64,3.83,5.44,5.77,1.16,1.24,2.44,2.5.51,4.13l-3-.29a2.06,2.06,0,0,0-2.09-.71,29.87,29.87,0,0,1-10.79,0" transform="translate(-408.08 -280.08)" style="fill:#fdeb25"/><path d="M479.09,396l-1.25-1.45,2.15-.59,4.13,0c1,.53,2.44,1.2,2,2.45s-2,.46-3.1.55C481.94,395.54,480.43,396.13,479.09,396Z" transform="translate(-408.08 -280.08)" style="fill:#fce925"/><path d="M482.1,389.07l10.79,0A13.75,13.75,0,0,1,482.1,389.07Z" transform="translate(-408.08 -280.08)" style="fill:#a26802"/><path d="M493.2,397.16l-2-.19c2.19-3.94,5.21-4.79,9.32-2.59A9.92,9.92,0,0,1,493.2,397.16Z" transform="translate(-408.08 -280.08)" style="fill:#f6e227"/></svg>