<svg id="Layer_1" data-name="Layer 1" xmlns="http://www.w3.org/2000/svg" viewBox="0 0 913.01 97"><defs><style>.cls-1,.cls-2,.cls-3,.cls-4{fill:#f2f2f7;}.cls-2,.cls-3,.cls-4{isolation:isolate;font-size:58.7px;}.cls-2{font-family:Averta-ExtraBold, Averta;font-weight:800;letter-spacing:0.14em;}.cls-3,.cls-4{font-family:Averta-Semibold, Averta;font-weight:600;}.cls-3{letter-spacing:0.29em;}.cls-4{letter-spacing:0.25em;}</style></defs><title>TurtleShell</title><path class="cls-1" d="M400.9,84.8a32.34,32.34,0,0,1-31.7-26,5.17,5.17,0,0,1,.8-4,4.91,4.91,0,0,1,3.4-2.2,163.8,163.8,0,0,1,55,0,5.2,5.2,0,0,1,4.2,6v.1A32.33,32.33,0,0,1,400.9,84.8Zm0-30.1A158.65,158.65,0,0,0,374.2,57a.85.85,0,0,0-.5.3.66.66,0,0,0-.1.6,27.95,27.95,0,0,0,54.8,0c0-.2,0-.5-.1-.6a.55.55,0,0,0-.5-.3A163.77,163.77,0,0,0,400.9,54.7Zm48.9-6a6.75,6.75,0,0,1-1.4-.2l-.9-.3a156.28,156.28,0,0,0-93.3,0l-.8.3a6,6,0,0,1-7.2-4.4,6.75,6.75,0,0,1-.2-1.4,54.9,54.9,0,0,1,109.8,0,6,6,0,0,1-6,6Zm-.8-4.6h0l.3.1a4.33,4.33,0,0,0,.5.1,1.58,1.58,0,0,0,1.6-1.6,50.5,50.5,0,1,0-101,0,1.58,1.58,0,0,0,1.6,1.6c.2,0,.3,0,.4-.1l.3-.1a161.39,161.39,0,0,1,96.3,0Z" transform="translate(20 12.2)"/><text class="cls-2" transform="translate(0 73.41)">CUBENSIS</text><text class="cls-3" transform="translate(498.75 73.8)">C</text><text class="cls-3" transform="translate(559.04 73.8)">ONN</text><text class="cls-4" transform="translate(750 73.8)">E</text><text class="cls-3" transform="translate(801.66 73.8)">CT</text></svg>