<?xml version="1.0" encoding="utf-8"?>
<!-- Generator: Adobe Illustrator 26.2.1, SVG Export Plug-In . SVG Version: 6.00 Build 0)  -->
<svg version="1.1" id="Layer_1" xmlns="http://www.w3.org/2000/svg" xmlns:xlink="http://www.w3.org/1999/xlink" x="0px" y="0px"
	 viewBox="0 0 1075 701" style="enable-background:new 0 0 1075 701;" xml:space="preserve">
<style type="text/css">
	.st0{fill:url(#SVGID_1_);}
	.st1{font-family:'GillSans-SemiBold';}
	.st2{font-size:145.3288px;}
	.st3{font-size:152.1411px;}
</style>
<linearGradient id="SVGID_1_" gradientUnits="userSpaceOnUse" x1="99.4611" y1="350.5" x2="372.0729" y2="350.5">
	<stop  offset="0" style="stop-color:#12397F"/>
	<stop  offset="0.635" style="stop-color:#0466AF"/>
	<stop  offset="1" style="stop-color:#00A8F2"/>
</linearGradient>
<path class="st0" d="M371.9,358.3c-6.2-86.8-84.4-137.6-155.1-127.3c-64,9.4-114.5,63.5-117.3,128c-0.8,19,6.8,24.9,25.3,19.4
	c36.1-10.8,72.9-16.3,110.6-16.4c38.2-0.1,75.6,5.2,112.2,16.1C365.5,383.4,373.3,376.9,371.9,358.3z M351.1,368.3
	c-76.9-22.8-153.8-23-230.7-0.3c-8.8,2.6-9.8,1.7-9.5-7.6c2-66.4,58.2-120.2,125.6-120.1c67.5,0.1,123.5,53.7,125.1,119.6
	C361.8,370,360.5,371.1,351.1,368.3z M300.5,390.1c-21.3-2.5-42.8-4.4-64.1-6.6c-21.2,2-42.1,3.8-62.9,6.1
	c-15,1.7-18.6,8.1-14.9,22.7c10.1,39.8,58.4,69.6,99.5,55.4c28.6-9.9,47.8-28.3,55.6-57.8C316.8,398,312.7,391.6,300.5,390.1z
	 M303,409c-7.6,28.8-35.7,50.2-66.5,50.3c-31.4,0.1-59.7-21.1-67.3-50.2c-1.4-5.3-0.6-8,5.5-8.5c22.4-1.9,44.9-4.2,65.4-6.1
	c20.6,2.2,39,4.2,57.4,6C303.5,401,304.4,403.6,303,409z"/>
<text transform="matrix(1 0 0 1 389.4482 336.8888)"><tspan x="0" y="0" class="st1 st2">Cubensis</tspan><tspan x="0" y="127.2" class="st1 st3">Connect</tspan></text>
</svg>
